HIERARCHY
ROOT Hips
{
	OFFSET 0.000000 88.474243 0.000000
	CHANNELS 6 Xposition Yposition Zposition Zrotation Yrotation Xrotation 
	JOINT Hips_Spine
	{
		OFFSET 0.000000 0.000000 0.000000
		CHANNELS 3 Zrotation Yrotation Xrotation
		JOINT Spine
		{
			OFFSET 0.005100 8.711998 -0.691000
			CHANNELS 3 Zrotation Yrotation Xrotation
			JOINT Spine1
			{
				OFFSET -0.009200 8.660301 -1.275000
				CHANNELS 3 Zrotation Yrotation Xrotation
				JOINT Spine2
				{
					OFFSET 0.006300 9.852501 -1.857000
					CHANNELS 3 Zrotation Yrotation Xrotation
					JOINT Spine2_Neck
					{
						OFFSET 0.000000 0.000000 0.000000
						CHANNELS 3 Zrotation Yrotation Xrotation
						JOINT Neck
						{
							OFFSET 0.016300 11.420799 -0.263300
							CHANNELS 3 Zrotation Yrotation Xrotation
							End Site #name: Head
							{
								OFFSET -0.019200 9.262405 2.362500
							}
						}
					}
					JOINT Spine2_LeftShoulder
					{
						OFFSET 0.000000 0.000000 0.000000
						CHANNELS 3 Zrotation Yrotation Xrotation
						JOINT LeftShoulder
						{
							OFFSET 5.616900 6.732201 -0.345700
							CHANNELS 3 Zrotation Yrotation Xrotation
							JOINT LeftArm
							{
								OFFSET 10.664888 -0.183372 -2.440700
								CHANNELS 3 Zrotation Yrotation Xrotation
								JOINT LeftForeArm
								{
									OFFSET 27.459126 0.000000 0.000000
									CHANNELS 3 Zrotation Yrotation Xrotation
									End Site #name: LeftHand
									{
										OFFSET 21.306858 0.000000 0.000000
									}
								}
							}
						}
					}
					JOINT Spine2_RightShoulder
					{
						OFFSET 0.000000 0.000000 0.000000
						CHANNELS 3 Zrotation Yrotation Xrotation
						JOINT RightShoulder
						{
							OFFSET -5.580300 6.737503 -0.344400
							CHANNELS 3 Zrotation Yrotation Xrotation
							JOINT RightArm
							{
								OFFSET -10.679335 -0.188484 -2.383900
								CHANNELS 3 Zrotation Yrotation Xrotation
								JOINT RightForeArm
								{
									OFFSET -27.503529 0.000000 0.000000
									CHANNELS 3 Zrotation Yrotation Xrotation
									End Site #name: RightHand
									{
										OFFSET -21.306808 0.000000 0.000000
									}
								}
							}
						}
					}
				}
			}
		}
	}
	JOINT Hips_LeftUpLeg
	{
		OFFSET 0.000000 0.000000 0.000000
		CHANNELS 3 Zrotation Yrotation Xrotation
		JOINT LeftUpLeg
		{
			OFFSET 6.857700 -6.739601 0.312100
			CHANNELS 3 Zrotation Yrotation Xrotation
			JOINT LeftLeg
			{
				OFFSET -0.367590 -34.731552 -4.572400
				CHANNELS 3 Zrotation Yrotation Xrotation
				End Site #name: LeftFoot
				{
					OFFSET 0.367590 -34.656704 -6.067400
				}
			}
		}
	}
	JOINT Hips_RightUpLeg
	{
		OFFSET 0.000000 0.000000 0.000000
		CHANNELS 3 Zrotation Yrotation Xrotation
		JOINT RightUpLeg
		{
			OFFSET -6.876100 -6.733299 0.301000
			CHANNELS 3 Zrotation Yrotation Xrotation
			JOINT RightLeg
			{
				OFFSET 0.347353 -34.795158 -4.515900
				CHANNELS 3 Zrotation Yrotation Xrotation
				End Site #name: RightFoot
				{
					OFFSET -0.347353 -34.589367 -6.070300
				}
			}
		}
	}
}
MOTION
Frames: 6
Frame Time: 0.041667
0.146372 0.042942 0.017879 0.785021 20.162375 -6.471969 0.000000 0.000000 0.000000 -0.353987 -0.221267 0.082994 -0.310251 -0.899829 -0.252378 0.000000 0.000000 0.000000 -0.309267 -0.752491 -1.258196 5.033113 0.582109 -7.409135 0.081954 -1.509348 -2.314636 -17.580526 -9.709021 2.280852 -45.428067 1.730081 13.495359 1.271932 -27.116575 5.853407 -0.456339 -0.709767 0.099725 12.342294 10.320704 4.334909 57.096848 -3.789321 0.791441 -0.172072 43.054050 0.702316 0.000000 0.000000 0.000000 -10.014391 16.338528 -4.270077 -1.258949 -1.580485 21.242722 0.000000 0.000000 0.000000 -5.645130 12.046288 -6.381863 6.106043 -0.301800 -4.200185 
0.601871 -0.026613 0.169633 2.623843 21.393310 -6.945066 -0.000000 0.000000 0.000000 -2.881613 -0.692841 -0.761553 0.133010 -0.925281 -0.661237 0.000000 0.000000 0.000000 -0.296139 -0.780049 -2.153097 7.021727 -0.629025 -7.533113 -0.549141 -1.215924 -2.909336 -23.826000 -5.709966 0.607577 -41.417709 1.598412 9.011160 -0.349063 -20.508070 4.256274 -0.349496 -0.990480 -0.346174 12.837230 7.536960 1.844783 59.115170 -0.684133 0.268024 -0.170035 41.496177 -0.632856 0.000000 0.000000 -0.000000 -12.604274 14.848623 -1.953454 -0.942073 1.925317 19.927745 0.000000 0.000000 0.000000 -9.478671 13.441924 -6.153052 6.126393 -1.425686 -2.669571 
0.826945 -0.054635 0.189134 3.972835 20.812055 -7.032003 -0.000000 0.000000 0.000000 -3.931909 -1.218939 -0.708984 0.135967 -0.752019 -0.858095 0.000000 0.000000 0.000000 0.269453 -1.138339 -2.390473 7.060925 -1.110843 -9.277307 -0.580816 -1.220520 -2.903430 -28.414644 -3.977426 1.382607 -40.325563 6.134300 4.696288 -0.411158 -21.024370 4.607406 -0.140707 -1.041547 -0.502439 11.684199 6.556043 2.046979 58.614849 1.620680 0.533766 0.056844 37.864510 -0.589335 0.000000 0.000000 -0.000000 -14.412654 14.424140 -0.349550 -1.666471 2.487305 18.699074 0.000000 0.000000 0.000000 -11.484980 13.976337 -8.326414 5.584744 -3.447038 1.794537 
1.068007 -0.086898 0.155580 4.675568 19.619510 -6.633296 -0.000000 0.000000 0.000000 -4.732903 -1.244092 -0.008941 0.280357 -0.725032 -1.207929 0.000000 0.000000 0.000000 0.542253 -1.254172 -2.349477 6.931910 -2.203038 -8.337474 -0.384679 -1.272528 -2.806876 -30.975129 -3.128571 2.087357 -38.722247 5.259172 5.460683 0.052523 -19.687303 6.787414 0.043390 -1.039214 -0.482908 10.844266 6.803162 2.011238 58.674729 3.790685 0.148115 0.210321 39.998280 -0.552225 0.000000 0.000000 -0.000000 -15.575536 14.406863 -0.213278 -1.910693 2.980116 18.180602 0.000000 0.000000 0.000000 -12.849997 13.061158 -11.164334 4.668181 -4.102412 7.537677 
1.371133 -0.107873 0.118194 5.027422 19.369435 -6.126751 -0.000000 0.000000 0.000000 -5.254770 -0.986585 0.033075 0.317051 -0.669459 -1.191816 0.000000 0.000000 0.000000 0.664896 -1.281990 -2.360545 6.363105 -3.129366 -6.496715 -0.234195 -1.313263 -2.624555 -33.334258 -2.094475 2.880091 -35.906531 3.889157 7.042240 0.728101 -16.192532 8.737702 0.132585 -1.032473 -0.400829 9.672224 6.997337 1.904982 59.483694 4.524449 -0.919676 0.309719 42.535110 -0.655460 0.000000 0.000000 -0.000000 -16.343504 14.474569 -0.491409 -1.882527 3.180649 18.030942 0.000000 0.000000 0.000000 -13.988610 11.924044 -13.181257 4.000040 -4.078380 11.974246 
1.713241 -0.115629 0.079279 5.119299 19.311579 -5.879736 -0.000000 0.000000 0.000000 -5.546300 -0.768326 -0.423233 0.280299 -0.619368 -1.113424 0.000000 0.000000 0.000000 0.638505 -1.302509 -2.336968 5.504718 -3.877104 -4.502672 -0.229419 -1.342001 -2.485709 -35.331450 -1.345116 3.366810 -34.132341 3.025194 8.169477 1.143008 -12.632394 9.913148 0.127505 -1.050743 -0.388949 8.549911 7.143738 1.790934 60.867752 4.673708 -1.841707 0.385069 42.669048 -0.716668 0.000000 0.000000 -0.000000 -16.800794 14.583837 -0.785447 -1.755596 3.382890 18.042260 0.000000 0.000000 0.000000 -14.843103 10.934621 -14.128108 3.680221 -3.651620 14.614120 
